# MagicaVoxel @ Ephtracy

# group
o 

# material
mtllib Bow.mtl
usemtl palette

# normals
vn -1 0 0
vn 1 0 0
vn 0 0 1
vn 0 0 -1
vn 0 -1 0
vn 0 1 0

# texcoords
vt 0.400391 0.5
vt 0.560547 0.5
vt 0.966797 0.5

# verts
v -0.7 0 -1.49012e-08
v -0.7 0 -0.1
v -0.7 0.1 -1.49012e-08
v -0.7 0.1 -0.1
v -0.7 1.5 -1.49012e-08
v -0.7 1.5 -0.1
v -0.7 1.6 -1.49012e-08
v -0.7 1.6 -0.1
v -0.3 0.1 -1.49012e-08
v -0.3 0.1 -0.1
v -0.3 0.2 -1.49012e-08
v -0.3 0.2 -0.1
v -0.3 1.4 -1.49012e-08
v -0.3 1.4 -0.1
v -0.3 1.5 -1.49012e-08
v -0.3 1.5 -0.1
v -0.2 0.2 -1.49012e-08
v -0.2 0.2 -0.1
v -0.2 0.3 -1.49012e-08
v -0.2 0.3 -0.1
v -0.2 1.3 -1.49012e-08
v -0.2 1.3 -0.1
v -0.2 1.4 -1.49012e-08
v -0.2 1.4 -0.1
v 0 0.3 -1.49012e-08
v 0 0.3 -0.1
v 0 0.4 -1.49012e-08
v 0 0.4 -0.1
v 0 1.2 -1.49012e-08
v 0 1.2 -0.1
v 0 1.3 -1.49012e-08
v 0 1.3 -0.1
v 0.1 0.4 -1.49012e-08
v 0.1 0.4 -0.1
v 0.1 0.5 -1.49012e-08
v 0.1 0.5 -0.1
v 0.1 1.1 -1.49012e-08
v 0.1 1.1 -0.1
v 0.1 1.2 -1.49012e-08
v 0.1 1.2 -0.1
v 0.2 0.5 -1.49012e-08
v 0.2 0.5 -0.1
v 0.2 0.6 -1.49012e-08
v 0.2 0.6 -0.1
v 0.2 0.7 -1.49012e-08
v 0.2 0.7 -0.1
v 0.2 0.9 -1.49012e-08
v 0.2 0.9 -0.1
v 0.2 1 -1.49012e-08
v 0.2 1 -0.1
v 0.2 1.1 -1.49012e-08
v 0.2 1.1 -0.1
v 0.3 0.6 0.1
v 0.3 0.6 -1.49012e-08
v 0.3 0.7 0.1
v 0.3 0.7 -1.49012e-08
v 0.3 0.7 -0.1
v 0.3 0.9 0.1
v 0.3 0.9 -1.49012e-08
v 0.3 0.9 -0.1
v 0.3 1 0.1
v 0.3 1 -1.49012e-08
v -0.6 0.1 -1.49012e-08
v -0.6 0.1 -0.1
v -0.6 1.5 -1.49012e-08
v -0.6 1.5 -0.1
v -0.1 0 -1.49012e-08
v -0.1 0 -0.1
v -0.1 0.1 -1.49012e-08
v -0.1 0.1 -0.1
v -0.1 1.5 -1.49012e-08
v -0.1 1.5 -0.1
v -0.1 1.6 -1.49012e-08
v -0.1 1.6 -0.1
v 0.1 0.1 -1.49012e-08
v 0.1 0.1 -0.1
v 0.1 0.2 -1.49012e-08
v 0.1 0.2 -0.1
v 0.1 1.4 -1.49012e-08
v 0.1 1.4 -0.1
v 0.1 1.5 -1.49012e-08
v 0.1 1.5 -0.1
v 0.2 0.2 -1.49012e-08
v 0.2 0.2 -0.1
v 0.2 0.3 -1.49012e-08
v 0.2 0.3 -0.1
v 0.2 1.3 -1.49012e-08
v 0.2 1.3 -0.1
v 0.2 1.4 -1.49012e-08
v 0.2 1.4 -0.1
v 0.3 0.3 -1.49012e-08
v 0.3 0.3 -0.1
v 0.3 0.5 -1.49012e-08
v 0.3 0.5 -0.1
v 0.3 1.1 -1.49012e-08
v 0.3 1.1 -0.1
v 0.3 1.3 -1.49012e-08
v 0.3 1.3 -0.1
v 0.4 0.5 -1.49012e-08
v 0.4 0.5 -0.1
v 0.4 0.6 0.1
v 0.4 0.6 -1.49012e-08
v 0.4 0.6 -0.1
v 0.4 0.7 0.1
v 0.4 0.7 -1.49012e-08
v 0.4 0.7 -0.1
v 0.4 0.9 0.1
v 0.4 0.9 -1.49012e-08
v 0.4 0.9 -0.1
v 0.4 1 0.1
v 0.4 1 -1.49012e-08
v 0.4 1 -0.1
v 0.4 1.1 -1.49012e-08
v 0.4 1.1 -0.1
v 0.5 0.7 -1.49012e-08
v 0.5 0.7 -0.1
v 0.5 0.9 -1.49012e-08
v 0.5 0.9 -0.1
v 0.3 0.6 0.1
v 0.3 0.7 0.1
v 0.3 0.9 0.1
v 0.3 1 0.1
v 0.4 0.6 0.1
v 0.4 0.7 0.1
v 0.4 0.9 0.1
v 0.4 1 0.1
v -0.7 0 -1.49012e-08
v -0.7 0.1 -1.49012e-08
v -0.7 1.5 -1.49012e-08
v -0.7 1.6 -1.49012e-08
v -0.6 0.1 -1.49012e-08
v -0.6 1.5 -1.49012e-08
v -0.3 0.1 -1.49012e-08
v -0.3 0.2 -1.49012e-08
v -0.3 1.4 -1.49012e-08
v -0.3 1.5 -1.49012e-08
v -0.2 0.2 -1.49012e-08
v -0.2 0.3 -1.49012e-08
v -0.2 1.3 -1.49012e-08
v -0.2 1.4 -1.49012e-08
v -0.1 0 -1.49012e-08
v -0.1 0.1 -1.49012e-08
v -0.1 1.5 -1.49012e-08
v -0.1 1.6 -1.49012e-08
v 0 0.3 -1.49012e-08
v 0 0.4 -1.49012e-08
v 0 1.2 -1.49012e-08
v 0 1.3 -1.49012e-08
v 0.1 0.1 -1.49012e-08
v 0.1 0.2 -1.49012e-08
v 0.1 0.4 -1.49012e-08
v 0.1 0.5 -1.49012e-08
v 0.1 1.1 -1.49012e-08
v 0.1 1.2 -1.49012e-08
v 0.1 1.4 -1.49012e-08
v 0.1 1.5 -1.49012e-08
v 0.2 0.2 -1.49012e-08
v 0.2 0.3 -1.49012e-08
v 0.2 0.5 -1.49012e-08
v 0.2 0.6 -1.49012e-08
v 0.2 0.7 -1.49012e-08
v 0.2 0.9 -1.49012e-08
v 0.2 1 -1.49012e-08
v 0.2 1.1 -1.49012e-08
v 0.2 1.3 -1.49012e-08
v 0.2 1.4 -1.49012e-08
v 0.3 0.3 -1.49012e-08
v 0.3 0.5 -1.49012e-08
v 0.3 0.6 -1.49012e-08
v 0.3 0.7 -1.49012e-08
v 0.3 0.9 -1.49012e-08
v 0.3 1 -1.49012e-08
v 0.3 1.1 -1.49012e-08
v 0.3 1.3 -1.49012e-08
v 0.4 0.5 -1.49012e-08
v 0.4 0.6 -1.49012e-08
v 0.4 0.7 -1.49012e-08
v 0.4 0.9 -1.49012e-08
v 0.4 1 -1.49012e-08
v 0.4 1.1 -1.49012e-08
v 0.5 0.7 -1.49012e-08
v 0.5 0.9 -1.49012e-08
v -0.7 0 -0.1
v -0.7 0.1 -0.1
v -0.7 1.5 -0.1
v -0.7 1.6 -0.1
v -0.6 0.1 -0.1
v -0.6 1.5 -0.1
v -0.3 0.1 -0.1
v -0.3 0.2 -0.1
v -0.3 1.4 -0.1
v -0.3 1.5 -0.1
v -0.2 0.2 -0.1
v -0.2 0.3 -0.1
v -0.2 1.3 -0.1
v -0.2 1.4 -0.1
v -0.1 0 -0.1
v -0.1 0.1 -0.1
v -0.1 1.5 -0.1
v -0.1 1.6 -0.1
v 0 0.3 -0.1
v 0 0.4 -0.1
v 0 1.2 -0.1
v 0 1.3 -0.1
v 0.1 0.1 -0.1
v 0.1 0.2 -0.1
v 0.1 0.4 -0.1
v 0.1 0.5 -0.1
v 0.1 1.1 -0.1
v 0.1 1.2 -0.1
v 0.1 1.4 -0.1
v 0.1 1.5 -0.1
v 0.2 0.2 -0.1
v 0.2 0.3 -0.1
v 0.2 0.5 -0.1
v 0.2 0.6 -0.1
v 0.2 0.7 -0.1
v 0.2 0.9 -0.1
v 0.2 1 -0.1
v 0.2 1.1 -0.1
v 0.2 1.3 -0.1
v 0.2 1.4 -0.1
v 0.3 0.3 -0.1
v 0.3 0.5 -0.1
v 0.3 0.7 -0.1
v 0.3 0.9 -0.1
v 0.3 1.1 -0.1
v 0.3 1.3 -0.1
v 0.4 0.5 -0.1
v 0.4 0.6 -0.1
v 0.4 0.7 -0.1
v 0.4 0.9 -0.1
v 0.4 1 -0.1
v 0.4 1.1 -0.1
v 0.5 0.7 -0.1
v 0.5 0.9 -0.1
v -0.7 0 -1.49012e-08
v -0.1 0 -1.49012e-08
v -0.7 0 -0.1
v -0.1 0 -0.1
v -0.1 0.1 -1.49012e-08
v 0.1 0.1 -1.49012e-08
v -0.1 0.1 -0.1
v 0.1 0.1 -0.1
v 0.1 0.2 -1.49012e-08
v 0.2 0.2 -1.49012e-08
v 0.1 0.2 -0.1
v 0.2 0.2 -0.1
v 0.2 0.3 -1.49012e-08
v 0.3 0.3 -1.49012e-08
v 0.2 0.3 -0.1
v 0.3 0.3 -0.1
v 0.3 0.5 -1.49012e-08
v 0.4 0.5 -1.49012e-08
v 0.3 0.5 -0.1
v 0.4 0.5 -0.1
v 0.3 0.6 0.1
v 0.4 0.6 0.1
v 0.3 0.6 -1.49012e-08
v 0.4 0.6 -1.49012e-08
v 0.4 0.7 -1.49012e-08
v 0.5 0.7 -1.49012e-08
v 0.4 0.7 -0.1
v 0.5 0.7 -0.1
v 0.3 0.9 0.1
v 0.4 0.9 0.1
v 0.2 0.9 -1.49012e-08
v 0.3 0.9 -1.49012e-08
v 0.4 0.9 -1.49012e-08
v 0.2 0.9 -0.1
v 0.3 0.9 -0.1
v 0.1 1.1 -1.49012e-08
v 0.2 1.1 -1.49012e-08
v 0.1 1.1 -0.1
v 0.2 1.1 -0.1
v 0 1.2 -1.49012e-08
v 0.1 1.2 -1.49012e-08
v 0 1.2 -0.1
v 0.1 1.2 -0.1
v -0.2 1.3 -1.49012e-08
v 0 1.3 -1.49012e-08
v -0.2 1.3 -0.1
v 0 1.3 -0.1
v -0.3 1.4 -1.49012e-08
v -0.2 1.4 -1.49012e-08
v -0.3 1.4 -0.1
v -0.2 1.4 -0.1
v -0.6 1.5 -1.49012e-08
v -0.3 1.5 -1.49012e-08
v -0.6 1.5 -0.1
v -0.3 1.5 -0.1
v -0.6 0.1 -1.49012e-08
v -0.3 0.1 -1.49012e-08
v -0.6 0.1 -0.1
v -0.3 0.1 -0.1
v -0.3 0.2 -1.49012e-08
v -0.2 0.2 -1.49012e-08
v -0.3 0.2 -0.1
v -0.2 0.2 -0.1
v -0.2 0.3 -1.49012e-08
v 0 0.3 -1.49012e-08
v -0.2 0.3 -0.1
v 0 0.3 -0.1
v 0 0.4 -1.49012e-08
v 0.1 0.4 -1.49012e-08
v 0 0.4 -0.1
v 0.1 0.4 -0.1
v 0.1 0.5 -1.49012e-08
v 0.2 0.5 -1.49012e-08
v 0.1 0.5 -0.1
v 0.2 0.5 -0.1
v 0.3 0.7 0.1
v 0.4 0.7 0.1
v 0.2 0.7 -1.49012e-08
v 0.3 0.7 -1.49012e-08
v 0.4 0.7 -1.49012e-08
v 0.2 0.7 -0.1
v 0.3 0.7 -0.1
v 0.4 0.9 -1.49012e-08
v 0.5 0.9 -1.49012e-08
v 0.4 0.9 -0.1
v 0.5 0.9 -0.1
v 0.3 1 0.1
v 0.4 1 0.1
v 0.3 1 -1.49012e-08
v 0.4 1 -1.49012e-08
v 0.3 1.1 -1.49012e-08
v 0.4 1.1 -1.49012e-08
v 0.3 1.1 -0.1
v 0.4 1.1 -0.1
v 0.2 1.3 -1.49012e-08
v 0.3 1.3 -1.49012e-08
v 0.2 1.3 -0.1
v 0.3 1.3 -0.1
v 0.1 1.4 -1.49012e-08
v 0.2 1.4 -1.49012e-08
v 0.1 1.4 -0.1
v 0.2 1.4 -0.1
v -0.1 1.5 -1.49012e-08
v 0.1 1.5 -1.49012e-08
v -0.1 1.5 -0.1
v 0.1 1.5 -0.1
v -0.7 1.6 -1.49012e-08
v -0.1 1.6 -1.49012e-08
v -0.7 1.6 -0.1
v -0.1 1.6 -0.1

# faces
f 3/1/1 2/1/1 1/1/1
f 4/1/1 2/1/1 3/1/1
f 5/3/1 4/3/1 3/3/1
f 6/3/1 4/3/1 5/3/1
f 7/1/1 6/1/1 5/1/1
f 8/1/1 6/1/1 7/1/1
f 11/1/1 10/1/1 9/1/1
f 12/1/1 10/1/1 11/1/1
f 15/1/1 14/1/1 13/1/1
f 16/1/1 14/1/1 15/1/1
f 19/1/1 18/1/1 17/1/1
f 20/1/1 18/1/1 19/1/1
f 23/1/1 22/1/1 21/1/1
f 24/1/1 22/1/1 23/1/1
f 27/1/1 26/1/1 25/1/1
f 28/1/1 26/1/1 27/1/1
f 31/1/1 30/1/1 29/1/1
f 32/1/1 30/1/1 31/1/1
f 35/1/1 34/1/1 33/1/1
f 36/1/1 34/1/1 35/1/1
f 39/1/1 38/1/1 37/1/1
f 40/1/1 38/1/1 39/1/1
f 43/1/1 42/1/1 41/1/1
f 44/1/1 42/1/1 43/1/1
f 45/2/1 44/2/1 43/2/1
f 46/2/1 44/2/1 45/2/1
f 49/2/1 48/2/1 47/2/1
f 50/2/1 48/2/1 49/2/1
f 51/1/1 50/1/1 49/1/1
f 52/1/1 50/1/1 51/1/1
f 55/2/1 54/2/1 53/2/1
f 56/2/1 54/2/1 55/2/1
f 59/2/1 57/2/1 56/2/1
f 60/2/1 57/2/1 59/2/1
f 61/2/1 59/2/1 58/2/1
f 62/2/1 59/2/1 61/2/1
f 63/3/2 64/3/2 65/3/2
f 65/3/2 64/3/2 66/3/2
f 67/1/2 68/1/2 69/1/2
f 69/1/2 68/1/2 70/1/2
f 71/1/2 72/1/2 73/1/2
f 73/1/2 72/1/2 74/1/2
f 75/1/2 76/1/2 77/1/2
f 77/1/2 76/1/2 78/1/2
f 79/1/2 80/1/2 81/1/2
f 81/1/2 80/1/2 82/1/2
f 83/1/2 84/1/2 85/1/2
f 85/1/2 84/1/2 86/1/2
f 87/1/2 88/1/2 89/1/2
f 89/1/2 88/1/2 90/1/2
f 91/1/2 92/1/2 93/1/2
f 93/1/2 92/1/2 94/1/2
f 95/1/2 96/1/2 97/1/2
f 97/1/2 96/1/2 98/1/2
f 99/1/2 100/1/2 102/1/2
f 102/1/2 100/1/2 103/1/2
f 101/2/2 102/2/2 104/2/2
f 102/2/2 103/2/2 104/2/2
f 104/2/2 103/2/2 105/2/2
f 105/2/2 103/2/2 106/2/2
f 107/2/2 108/2/2 110/2/2
f 108/2/2 109/2/2 110/2/2
f 110/2/2 109/2/2 111/2/2
f 111/2/2 109/2/2 112/2/2
f 111/1/2 112/1/2 113/1/2
f 113/1/2 112/1/2 114/1/2
f 115/2/2 116/2/2 117/2/2
f 117/2/2 116/2/2 118/2/2
f 123/2/3 120/2/3 119/2/3
f 124/2/3 120/2/3 123/2/3
f 125/2/3 122/2/3 121/2/3
f 126/2/3 122/2/3 125/2/3
f 131/1/3 128/1/3 127/1/3
f 131/3/3 129/3/3 128/3/3
f 132/1/3 130/1/3 129/1/3
f 132/3/3 129/3/3 131/3/3
f 133/1/3 131/1/3 127/1/3
f 136/1/3 130/1/3 132/1/3
f 137/1/3 134/1/3 133/1/3
f 140/1/3 136/1/3 135/1/3
f 141/1/3 138/1/3 137/1/3
f 141/1/3 133/1/3 127/1/3
f 141/1/3 137/1/3 133/1/3
f 142/1/3 138/1/3 141/1/3
f 143/1/3 140/1/3 139/1/3
f 143/1/3 136/1/3 140/1/3
f 143/1/3 130/1/3 136/1/3
f 144/1/3 130/1/3 143/1/3
f 145/1/3 138/1/3 142/1/3
f 148/1/3 143/1/3 139/1/3
f 149/1/3 146/1/3 145/1/3
f 149/1/3 145/1/3 142/1/3
f 150/1/3 146/1/3 149/1/3
f 151/1/3 146/1/3 150/1/3
f 154/1/3 148/1/3 147/1/3
f 155/1/3 143/1/3 148/1/3
f 155/1/3 148/1/3 154/1/3
f 156/1/3 143/1/3 155/1/3
f 157/1/3 152/1/3 151/1/3
f 157/1/3 151/1/3 150/1/3
f 158/1/3 152/1/3 157/1/3
f 159/1/3 152/1/3 158/1/3
f 164/1/3 154/1/3 153/1/3
f 164/1/3 155/1/3 154/1/3
f 165/1/3 155/1/3 164/1/3
f 166/1/3 155/1/3 165/1/3
f 167/1/3 159/1/3 158/1/3
f 167/1/3 160/1/3 159/1/3
f 168/1/3 160/1/3 167/1/3
f 169/2/3 161/2/3 160/2/3
f 169/1/3 160/1/3 168/1/3
f 170/2/3 161/2/3 169/2/3
f 171/2/3 163/2/3 162/2/3
f 172/1/3 165/1/3 164/1/3
f 172/1/3 164/1/3 163/1/3
f 172/2/3 163/2/3 171/2/3
f 173/1/3 165/1/3 172/1/3
f 174/1/3 165/1/3 173/1/3
f 175/1/3 169/1/3 168/1/3
f 176/1/3 169/1/3 175/1/3
f 177/2/3 171/2/3 170/2/3
f 178/2/3 171/2/3 177/2/3
f 179/1/3 173/1/3 172/1/3
f 180/1/3 173/1/3 179/1/3
f 181/2/3 178/2/3 177/2/3
f 182/2/3 178/2/3 181/2/3
f 183/1/4 184/1/4 187/1/4
f 184/3/4 185/3/4 187/3/4
f 185/1/4 186/1/4 188/1/4
f 187/3/4 185/3/4 188/3/4
f 183/1/4 187/1/4 189/1/4
f 188/1/4 186/1/4 192/1/4
f 189/1/4 190/1/4 193/1/4
f 191/1/4 192/1/4 196/1/4
f 193/1/4 194/1/4 197/1/4
f 183/1/4 189/1/4 197/1/4
f 189/1/4 193/1/4 197/1/4
f 197/1/4 194/1/4 198/1/4
f 195/1/4 196/1/4 199/1/4
f 196/1/4 192/1/4 199/1/4
f 192/1/4 186/1/4 199/1/4
f 199/1/4 186/1/4 200/1/4
f 198/1/4 194/1/4 201/1/4
f 195/1/4 199/1/4 204/1/4
f 201/1/4 202/1/4 205/1/4
f 198/1/4 201/1/4 205/1/4
f 205/1/4 202/1/4 206/1/4
f 206/1/4 202/1/4 207/1/4
f 203/1/4 204/1/4 210/1/4
f 204/1/4 199/1/4 211/1/4
f 210/1/4 204/1/4 211/1/4
f 211/1/4 199/1/4 212/1/4
f 207/1/4 208/1/4 213/1/4
f 206/1/4 207/1/4 213/1/4
f 213/1/4 208/1/4 214/1/4
f 214/1/4 208/1/4 215/1/4
f 209/1/4 210/1/4 220/1/4
f 210/1/4 211/1/4 220/1/4
f 220/1/4 211/1/4 221/1/4
f 221/1/4 211/1/4 222/1/4
f 214/1/4 215/1/4 223/1/4
f 215/1/4 216/1/4 223/1/4
f 223/1/4 216/1/4 224/1/4
f 216/2/4 217/2/4 225/2/4
f 218/2/4 219/2/4 226/2/4
f 220/1/4 221/1/4 227/1/4
f 219/1/4 220/1/4 227/1/4
f 227/1/4 221/1/4 228/1/4
f 224/1/4 216/1/4 229/1/4
f 216/2/4 225/2/4 230/2/4
f 229/1/4 216/1/4 230/1/4
f 225/2/4 226/2/4 230/2/4
f 230/2/4 226/2/4 231/2/4
f 226/2/4 219/2/4 232/2/4
f 231/2/4 226/2/4 232/2/4
f 219/1/4 227/1/4 233/1/4
f 232/2/4 219/2/4 233/2/4
f 233/1/4 227/1/4 234/1/4
f 231/2/4 232/2/4 235/2/4
f 235/2/4 232/2/4 236/2/4
f 239/1/5 238/1/5 237/1/5
f 240/1/5 238/1/5 239/1/5
f 243/1/5 242/1/5 241/1/5
f 244/1/5 242/1/5 243/1/5
f 247/1/5 246/1/5 245/1/5
f 248/1/5 246/1/5 247/1/5
f 251/1/5 250/1/5 249/1/5
f 252/1/5 250/1/5 251/1/5
f 255/1/5 254/1/5 253/1/5
f 256/1/5 254/1/5 255/1/5
f 259/2/5 258/2/5 257/2/5
f 260/2/5 258/2/5 259/2/5
f 263/2/5 262/2/5 261/2/5
f 264/2/5 262/2/5 263/2/5
f 268/2/5 266/2/5 265/2/5
f 269/2/5 266/2/5 268/2/5
f 270/2/5 268/2/5 267/2/5
f 271/2/5 268/2/5 270/2/5
f 274/1/5 273/1/5 272/1/5
f 275/1/5 273/1/5 274/1/5
f 278/1/5 277/1/5 276/1/5
f 279/1/5 277/1/5 278/1/5
f 282/1/5 281/1/5 280/1/5
f 283/1/5 281/1/5 282/1/5
f 286/1/5 285/1/5 284/1/5
f 287/1/5 285/1/5 286/1/5
f 290/1/5 289/1/5 288/1/5
f 291/1/5 289/1/5 290/1/5
f 292/1/6 293/1/6 294/1/6
f 294/1/6 293/1/6 295/1/6
f 296/1/6 297/1/6 298/1/6
f 298/1/6 297/1/6 299/1/6
f 300/1/6 301/1/6 302/1/6
f 302/1/6 301/1/6 303/1/6
f 304/1/6 305/1/6 306/1/6
f 306/1/6 305/1/6 307/1/6
f 308/1/6 309/1/6 310/1/6
f 310/1/6 309/1/6 311/1/6
f 312/2/6 313/2/6 315/2/6
f 315/2/6 313/2/6 316/2/6
f 314/2/6 315/2/6 317/2/6
f 317/2/6 315/2/6 318/2/6
f 319/2/6 320/2/6 321/2/6
f 321/2/6 320/2/6 322/2/6
f 323/2/6 324/2/6 325/2/6
f 325/2/6 324/2/6 326/2/6
f 327/1/6 328/1/6 329/1/6
f 329/1/6 328/1/6 330/1/6
f 331/1/6 332/1/6 333/1/6
f 333/1/6 332/1/6 334/1/6
f 335/1/6 336/1/6 337/1/6
f 337/1/6 336/1/6 338/1/6
f 339/1/6 340/1/6 341/1/6
f 341/1/6 340/1/6 342/1/6
f 343/1/6 344/1/6 345/1/6
f 345/1/6 344/1/6 346/1/6
